<?xml version="1.0" encoding="UTF-8"?>
<svg id="katman_1" xmlns="http://www.w3.org/2000/svg" version="1.1" viewBox="0 0 2200 2200">
  <!-- Generator: Adobe Illustrator 29.0.1, SVG Export Plug-In . SVG Version: 2.1.0 Build 192)  -->
  <defs>
    <style>
      .st0 {
        fill: #00c951;
      }

      .st1 {
        fill: #fff;
      }
    </style>
  </defs>
  <polygon class="st0" points="2136.2 556.1 2136.2 1058.2 2042 1058.2 2042 1141.8 1947.8 1141.8 1947.8 1253.8 1853.6 1253.8 1853.6 1392.9 1759.4 1392.9 1759.4 1476.5 1665.2 1476.5 1665.2 1560.2 1571 1560.2 1571 1643.9 1476.8 1643.9 1476.8 1727.5 1382.6 1727.5 1382.6 1811.2 1288.4 1811.2 1288.4 1894.9 1194.2 1894.9 1194.2 1978.6 1005.8 1978.6 1005.8 1894.9 911.6 1894.9 911.6 1811.2 817.4 1811.2 817.4 1727.5 723.2 1727.5 723.2 1643.9 629 1643.9 629 1560.2 534.8 1560.2 534.8 1476.5 440.6 1476.5 440.6 1392.9 346.4 1392.9 346.4 1253.8 252.2 1253.8 252.2 1141.8 158 1141.8 158 1058.2 63.8 1058.2 63.8 556.1 158 556.1 158 388.8 252.2 388.8 252.2 305.1 416.8 305.1 416.8 221.4 723.2 221.4 723.2 305.1 911.6 305.1 911.6 388.8 1005.8 388.8 1005.8 472.5 1194.2 472.5 1194.2 388.8 1288.4 388.8 1288.4 305.1 1476.8 305.1 1476.8 221.4 1783.2 221.4 1783.2 305.1 1947.8 305.1 1947.8 388.8 2042 388.8 2042 556.1 2136.2 556.1"/>
  <polygon class="st1" points="1884.8 555.2 1884.8 707.7 1732.3 707.7 1732.3 607.2 1638.1 607.2 1638.1 454.7 1790.5 454.7 1790.5 555.2 1884.8 555.2"/>
</svg>